<svg id="Layer_1" data-name="Layer 1" xmlns="http://www.w3.org/2000/svg" viewBox="0 0 25 25"><defs><style>.cls-1{fill:#fff;}</style></defs><title>magnifying-glass</title><path class="cls-1" d="M12.77,18.92l-.32-.25C12.26,18.53,8,15.18,8,12.14A4.54,4.54,0,0,1,12.74,7.4,4.21,4.21,0,0,1,17,11.66c0,3.18-2.66,5.74-3.93,7Zm0-10.57A3.63,3.63,0,0,0,9,12.14c0,2,2.47,4.44,3.76,5.52,1.25-1.22,3.34-3.44,3.34-6A3.27,3.27,0,0,0,12.74,8.35Z"/><path class="cls-1" d="M12.5,14a2.13,2.13,0,1,1,2.13-2.13A2.13,2.13,0,0,1,12.5,14Zm0-3.31a1.18,1.18,0,1,0,1.18,1.18A1.18,1.18,0,0,0,12.5,10.72Z"/></svg>